<?xml version="1.0" encoding="utf-8"?>
<!-- Generator: Adobe Illustrator 23.1.0, SVG Export Plug-In . SVG Version: 6.00 Build 0)  -->
<svg version="1.1" id="Layer_1" xmlns="http://www.w3.org/2000/svg" xmlns:xlink="http://www.w3.org/1999/xlink" x="0px" y="0px"
	 viewBox="0 0 512 512" style="enable-background:new 0 0 512 512;" xml:space="preserve">
<style type="text/css">
	.st0{opacity:0.1;fill:#F39633;}
	.st1{fill:#1A1832;}
	.st2{fill:#F39633;}
</style>
<g>
	<path id="XMLID_2_" class="st0" d="M427.8,125.4c-31.4-31.7-75.3-50.5-129.1-50.5h-87.8c-53.8,0-98.1,18.8-129.7,50.5
		c-30.1,30.3-46.6,73-46.6,116.8c0,44.5,16.5,86.5,46.5,117.2c31.4,32.1,75.9,50.9,129.7,50.9h87.8c53.8,0,97.7-18.8,129.1-50.9
		c30.4-30.7,46.9-72.6,46.9-117.2C474.7,198.3,458.1,155.7,427.8,125.4z"/>
	<path id="XMLID_1_" class="st1" d="M412,136c-28.5-28.8-68.5-45.9-117.4-45.9h-79.8c-48.9,0-89.2,17.1-117.9,45.9
		c-27.3,27.6-42.4,66.3-42.4,106.2c0,40.5,15,78.6,42.3,106.6c28.5,29.1,69,46.2,117.9,46.2h79.8c48.9,0,88.9-17.1,117.4-46.2
		c27.6-27.9,42.6-66,42.6-106.6C454.6,202.4,439.6,163.6,412,136z"/>
	<path id="XMLID_683_" class="st2" d="M391.2,150.1c-24.7-25-59.4-39.9-101.9-39.9h-69.2c-42.5,0-77.4,14.8-102.3,39.9
		C94.1,174,81,207.7,81,242.3c0,35.1,13.1,68.2,36.7,92.5c24.7,25.3,59.9,40.1,102.3,40.1h69.2c42.5,0,77.1-14.8,101.9-40.1
		c24-24.2,37-57.3,37-92.5C428.2,207.7,415.1,174,391.2,150.1z"/>
	<path class="st1" d="M392.2,149.3c-24.1-24.7-57.8-39-93.6-39c-35.5,0-68.9,14.4-93.1,39.1c-24.7,24.7-39.4,58.1-39.4,93.7
		s14.6,68.9,39.4,93.1c24.1,24.1,57.6,38.8,93.1,38.8c35.8,0,69.5-14.6,93.7-38.8c24.1-24.2,38.8-57.6,38.8-93.2
		S416.4,174,392.2,149.3z"/>
</g>
</svg>
