<?xml version="1.0" encoding="utf-8"?>
<!-- Generator: Adobe Illustrator 23.1.0, SVG Export Plug-In . SVG Version: 6.00 Build 0)  -->
<svg version="1.1" id="Layer_1" xmlns="http://www.w3.org/2000/svg" xmlns:xlink="http://www.w3.org/1999/xlink" x="0px" y="0px"
	 viewBox="0 0 512 512" style="enable-background:new 0 0 512 512;" xml:space="preserve">
<style type="text/css">
	.st0{opacity:0.1;fill:#F29532;}
	.st1{fill:#191731;}
	.st2{fill:#F29532;}
	.st3{fill:#FFFFFF;}
</style>
<g>
	<path id="XMLID_15_" class="st0" d="M429.7,139.3c-31.4-31.7-75.3-50.5-129.1-50.5h-87.8c-53.8,0-98.1,18.8-129.7,50.5
		c-30.1,30.3-46.6,73-46.6,116.8c0,44.5,16.5,86.5,46.5,117.2c31.4,32.1,75.9,50.9,129.7,50.9h87.8c53.8,0,97.7-18.8,129.1-50.9
		c30.4-30.7,46.9-72.6,46.9-117.2C476.5,212.3,460,169.6,429.7,139.3z"/>
	<path id="XMLID_14_" class="st1" d="M413.9,150c-28.5-28.8-68.5-45.9-117.4-45.9h-79.8c-48.9,0-89.2,17.1-117.9,45.9
		c-27.3,27.6-42.4,66.3-42.4,106.2c0,40.5,15,78.6,42.3,106.6c28.5,29.1,69,46.2,117.9,46.2h79.8c48.9,0,88.9-17.1,117.4-46.2
		c27.6-27.9,42.6-66,42.6-106.6C456.5,216.3,441.5,177.5,413.9,150z"/>
	<g>
		<path id="XMLID_12_" class="st2" d="M390.6,164.8c-24.5-24.8-58.9-39.5-101-39.5h-68.7c-42.1,0-76.7,14.7-101.5,39.5
			c-23.5,23.7-36.5,57.1-36.5,91.4c0,34.8,12.9,67.7,36.4,91.7c24.5,25.1,59.4,39.8,101.5,39.8h68.7c42.1,0,76.5-14.7,101-39.8
			c23.8-24,36.7-56.8,36.7-91.7C427.2,221.9,414.3,188.5,390.6,164.8z"/>
		<path class="st1" d="M378.5,308.6c-16,16.3-37.8,25.1-62.8,25.2l0,0c-0.1,0-0.1,0-0.1,0c-0.1,0-0.2,0-0.3,0v-0.1
			c-4.1-0.1-7.9-1.8-10.7-4.5c-2.8-2.8-4.5-6.8-4.5-11.3s1.8-8.5,4.5-11.3c2.8-2.8,6.6-4.5,10.7-4.7l0,0c0.1,0,0.1,0,0.2,0
			c0.1,0,0.1,0,0.2,0l0,0c16.3-0.1,30.2-5.5,40.1-15.7c9.3-9.4,14.3-22.2,14.3-36.1h0.1c0-10.2-4.1-20.2-11.5-27.5
			c-7.3-7.3-17.4-11.5-27.9-11.5c-8.2,0-15.8,2.6-22.6,7.8l-9.4,7.3l-9.6-7.2c-7.1-5.3-14.6-7.9-23.1-7.9
			c-10.4,0-20.3,4.1-27.6,11.5c-7.2,7.2-11.3,17.2-11.3,27.5h0.1c0,13.9,5,26.7,14.2,36.1c10,10.2,24.1,15.7,40.7,15.7l0,0
			c4.3,0,8.3,1.8,11.1,4.6c2.8,2.8,4.5,6.8,4.5,11.3c0,4.5-1.8,8.5-4.5,11.3c-2.8,2.8-6.8,4.7-11.1,4.7l0,0h-0.1c0,0,0,0-0.1,0l0,0
			c-25.4,0-47.3-8.7-63.5-25.2c-15.1-15.3-23.3-36.1-23.3-58.3h-0.1c0-18.6,7.5-36.9,20.6-50c13.4-13.4,31.2-20.7,50.1-20.7
			c11.6,0,22.4,2.7,32.5,8.1c10-5.3,20.9-8.1,32.2-8.1c18.8,0,37.2,7.6,50.4,20.7c13.2,13.2,20.7,31.4,20.7,50H402
			C402,272.5,393.7,293.2,378.5,308.6z M322,253.7c0-8.9,7.2-16,16-16c8.8,0,16,7.2,16,16s-7.2,16-16,16
			C329.2,269.7,322,262.5,322,253.7z M275.8,253.7c0,8.9-7.2,16-16,16c-8.9,0-16-7.2-16-16s7.2-16,16-16
			C268.6,237.7,275.8,244.8,275.8,253.7z"/>
		<path class="st3" d="M391.5,164c-23.9-24.5-57.3-38.7-92.8-38.7c-35.3,0-68.3,14.2-92.3,38.8c-24.5,24.5-39.1,57.6-39.1,92.9
			s14.5,68.3,39.1,92.3c23.9,23.9,57.1,38.5,92.3,38.5c35.5,0,68.9-14.5,92.9-38.5c23.9-24,38.4-57.2,38.4-92.4
			S415.5,188.5,391.5,164z M378.5,308.6c-16,16.3-37.8,25.1-62.8,25.2l0,0c-0.1,0-0.1,0-0.1,0c-0.1,0-0.2,0-0.3,0v-0.1
			c-4.1-0.1-7.9-1.8-10.7-4.5c-2.8-2.8-4.5-6.8-4.5-11.3s1.8-8.5,4.5-11.3c2.8-2.8,6.6-4.5,10.7-4.7l0,0c0.1,0,0.1,0,0.2,0
			c0.1,0,0.1,0,0.2,0l0,0c16.3-0.1,30.2-5.5,40.1-15.7c9.3-9.4,14.3-22.2,14.3-36.1h0.1c0-10.2-4.1-20.2-11.5-27.5
			c-7.3-7.3-17.4-11.5-27.9-11.5c-8.2,0-15.8,2.6-22.6,7.8l-9.4,7.3l-9.6-7.2c-7.1-5.3-14.6-7.9-23.1-7.9
			c-10.4,0-20.3,4.1-27.6,11.5c-7.2,7.2-11.3,17.2-11.3,27.5h0.1c0,13.9,5,26.7,14.2,36.1c10,10.2,24.1,15.7,40.7,15.7l0,0
			c4.3,0,8.3,1.8,11.1,4.6c2.8,2.8,4.5,6.8,4.5,11.3c0,4.5-1.8,8.5-4.5,11.3c-2.8,2.8-6.8,4.7-11.1,4.7l0,0h-0.1c0,0,0,0-0.1,0l0,0
			c-25.4,0-47.3-8.7-63.5-25.2c-15.1-15.3-23.3-36.1-23.3-58.3h-0.1c0-18.6,7.5-36.9,20.6-50c13.4-13.4,31.2-20.7,50.1-20.7
			c11.6,0,22.4,2.7,32.5,8.1c10-5.3,20.9-8.1,32.2-8.1c18.8,0,37.2,7.6,50.4,20.7c13.2,13.2,20.7,31.4,20.7,50H402
			C402,272.5,393.7,293.2,378.5,308.6z M322,253.7c0-8.9,7.2-16,16-16c8.8,0,16,7.2,16,16s-7.2,16-16,16
			C329.2,269.7,322,262.5,322,253.7z M275.8,253.7c0,8.9-7.2,16-16,16c-8.9,0-16-7.2-16-16s7.2-16,16-16
			C268.6,237.7,275.8,244.8,275.8,253.7z"/>
	</g>
</g>
</svg>
