<?xml version="1.0" encoding="utf-8"?>
<!-- Generator: Adobe Illustrator 23.1.0, SVG Export Plug-In . SVG Version: 6.00 Build 0)  -->
<svg version="1.1" id="Layer_1" xmlns="http://www.w3.org/2000/svg" xmlns:xlink="http://www.w3.org/1999/xlink" x="0px" y="0px"
	 viewBox="0 0 512 512" style="enable-background:new 0 0 512 512;" xml:space="preserve">
<style type="text/css">
	.st0{fill:#F39633;}
	.st1{fill:#1A1832;}
	.st2{fill:#FFFFFF;}
</style>
<g>
	<path id="XMLID_683_" class="st0" d="M453.8,107.3C417.6,70.7,366.9,49,304.8,49H203.5c-62.1,0-113.2,21.7-149.7,58.3
		C19.1,142.3,0,191.5,0,242.1c0,51.4,19.1,99.8,53.7,135.3c36.2,37,87.6,58.7,149.7,58.7h101.3c62.1,0,112.8-21.7,149-58.7
		c35.1-35.4,54.1-83.8,54.1-135.3C507.9,191.5,488.8,142.3,453.8,107.3z"/>
	<path class="st1" d="M436,319.4c-23.6,24.1-55.7,37-92.7,37.1v0c-0.1,0-0.1,0-0.2,0c-0.1,0-0.3,0-0.4,0v-0.1
		c-6.1-0.2-11.7-2.7-15.8-6.7c-4.2-4.2-6.7-10.1-6.7-16.7c0-6.6,2.6-12.5,6.7-16.6c4.1-4.1,9.8-6.7,15.8-6.9v0c0.1,0,0.2,0,0.3,0
		c0.1,0,0.2,0,0.3,0v0c24.1-0.1,44.6-8.1,59.2-23.1c13.7-13.8,21.1-32.7,21.1-53.2h0.1c0-15.1-6.1-29.8-16.9-40.5
		c-10.7-10.7-25.7-16.9-41.1-16.9c-12.1,0-23.3,3.9-33.3,11.5L318.5,198l-14.2-10.6c-10.4-7.8-21.5-11.6-34-11.6
		c-15.4,0-29.9,6-40.7,16.9C219,203.3,213,218.1,213,233.3h0.1c0,20.5,7.4,39.4,20.9,53.2c14.8,15.1,35.6,23.1,60.1,23.1v0
		c6.3,0,12.2,2.6,16.4,6.8c4.2,4.2,6.7,10.1,6.7,16.7c0,6.6-2.6,12.5-6.7,16.6c-4.2,4.2-10,6.9-16.3,6.9v0c0,0-0.1,0-0.1,0
		c0,0,0,0-0.1,0v0c-37.4,0-69.8-12.9-93.6-37.2c-22.2-22.6-34.3-53.2-34.3-86H166c0-27.5,11.1-54.4,30.4-73.8
		c19.7-19.7,46-30.6,73.9-30.6c17.1,0,33.1,4,48,11.9c14.7-7.8,30.8-11.9,47.5-11.9c27.8,0,54.8,11.2,74.3,30.6
		c19.5,19.5,30.6,46.3,30.6,73.8h-0.1C470.7,266.2,458.4,296.8,436,319.4z M352.7,238.5c0-13.1,10.6-23.6,23.6-23.6
		s23.6,10.6,23.6,23.6s-10.6,23.6-23.6,23.6S352.7,251.5,352.7,238.5z M284.5,238.5c0,13.1-10.6,23.6-23.6,23.6
		c-13.1,0-23.6-10.6-23.6-23.6s10.6-23.6,23.6-23.6C273.9,214.8,284.5,225.4,284.5,238.5z"/>
	<path class="st2" d="M455.2,106.1C419.9,70,370.7,49,318.3,49c-52,0-100.8,21-136.2,57.2c-36.1,36.1-57.6,85-57.6,137
		s21.4,100.8,57.6,136.2c35.3,35.3,84.2,56.8,136.2,56.8c52.4,0,101.6-21.4,137-56.8C490.6,344,512,295.1,512,243.1
		S490.6,142.3,455.2,106.1z M436,319.4c-23.6,24.1-55.7,37-92.7,37.1v0c-0.1,0-0.1,0-0.2,0c-0.1,0-0.3,0-0.4,0v-0.1
		c-6.1-0.2-11.7-2.7-15.8-6.7c-4.2-4.2-6.7-10.1-6.7-16.7c0-6.6,2.6-12.5,6.7-16.6c4.1-4.1,9.8-6.7,15.8-6.9v0c0.1,0,0.2,0,0.3,0
		c0.1,0,0.2,0,0.3,0v0c24.1-0.1,44.6-8.1,59.2-23.1c13.7-13.8,21.1-32.7,21.1-53.2h0.1c0-15.1-6.1-29.8-16.9-40.5
		c-10.7-10.7-25.7-16.9-41.1-16.9c-12.1,0-23.3,3.9-33.3,11.5L318.5,198l-14.2-10.6c-10.4-7.8-21.5-11.6-34-11.6
		c-15.4,0-29.9,6-40.7,16.9C219,203.3,213,218.1,213,233.3h0.1c0,20.5,7.4,39.4,20.9,53.2c14.8,15.1,35.6,23.1,60.1,23.1v0
		c6.3,0,12.2,2.6,16.4,6.8c4.2,4.2,6.7,10.1,6.7,16.7c0,6.6-2.6,12.5-6.7,16.6c-4.2,4.2-10,6.9-16.3,6.9v0c0,0-0.1,0-0.1,0
		c0,0,0,0-0.1,0v0c-37.4,0-69.8-12.9-93.6-37.2c-22.2-22.6-34.3-53.2-34.3-86H166c0-27.5,11.1-54.4,30.4-73.8
		c19.7-19.7,46-30.6,73.9-30.6c17.1,0,33.1,4,48,11.9c14.7-7.8,30.8-11.9,47.5-11.9c27.8,0,54.8,11.2,74.3,30.6
		c19.5,19.5,30.6,46.3,30.6,73.8h-0.1C470.7,266.2,458.4,296.8,436,319.4z M352.7,238.5c0-13.1,10.6-23.6,23.6-23.6
		s23.6,10.6,23.6,23.6s-10.6,23.6-23.6,23.6S352.7,251.5,352.7,238.5z M284.5,238.5c0,13.1-10.6,23.6-23.6,23.6
		c-13.1,0-23.6-10.6-23.6-23.6s10.6-23.6,23.6-23.6C273.9,214.8,284.5,225.4,284.5,238.5z"/>
</g>
</svg>
